<?xml version="1.0" encoding="UTF-8"?>
<svg width="91" height="67" viewBox="0 0 91 67" fill="none" xmlns="http://www.w3.org/2000/svg">
    <path d="M50.6084 47.8905C48.8454 47.4535 42.7676 48.4954 41.2232 48.4954C38.8473 48.4954 29.2359 49.1377 27.8415 46.8036C26.7386 44.9573 28.8608 42.4935 29.7299 40.9895C30.6005 39.4831 30.944 37.5511 31.8412 36.1399C33.4562 33.6001 37.9681 30.5119 40.6292 29.0994C46.4399 26.0151 53.4605 28.721 58.4491 32.2275C62.3892 34.9969 65.8396 38.6709 66.5274 43.5697C66.7816 45.3802 67.1421 47.3559 65.3299 48.5203C64.212 49.239 62.5719 48.9646 61.3003 48.9646C57.8354 48.9646 53.9735 48.7241 50.6084 47.8905Z" fill="white"></path>
    <path d="M70.8042 40.5204L71.0418 45.6807C75.8603 45.6802 81.268 44.0871 85.7729 42.5573C87.595 41.9383 89.4756 42.1789 90.5248 40.2858L81.0209 40.9794L70.8042 40.5204Z" fill="white"></path>
    <path d="M86.9608 27.385C84.8134 27.8236 83.2757 29.1125 81.2585 29.8047C78.8742 30.6231 76.5006 31.4846 74.1305 32.318C73.0084 32.7125 71.8594 32.5948 70.8051 33.2478C69.3094 34.1741 67.2934 36.701 69.003 38.3066C70.9914 40.1744 73.054 36.4589 74.1804 35.4524C77.6297 32.3698 85.2216 32.2953 86.9608 27.385Z" fill="white"></path>
    <path d="M70.329 23.3974C72.9426 21.4037 78.2743 17.8051 80.0705 16.5952C80.6422 18.5093 74.2493 24.8048 72.9426 26.2122C71.2794 28.3232 69.4962 31.6352 66.765 32.7944C64.7153 33.6644 61.6329 31.7745 61.3003 29.7306C64.1802 28.5038 67.4778 25.0394 70.329 23.3974Z" fill="white"></path>
    <path d="M67.0026 6.03992C64.5069 6.87995 64.1631 9.66109 62.992 11.6694C60.6692 15.6526 55.9757 17.75 54.6853 22.4592C54.3657 23.6254 53.9526 26.2494 55.0581 27.1523C56.2297 28.109 59.6057 26.5917 60.228 25.4468C61.1292 23.7882 61.2905 21.6248 62.0872 19.879C64.1921 15.2663 66.9879 11.2938 67.0026 6.03992Z" fill="white"></path>
    <path d="M47.876 5.92263C48.3512 3.34246 49.4204 0.410425 49.658 0.17589C49.8955 -0.0586027 49.8956 -0.0586575 50.1332 0.17589C50.3708 0.410452 51.2024 22.2246 50.3708 24.3357C49.5392 26.4467 42.8864 25.6258 42.2924 24.5702C41.6984 23.5147 45.7376 13.194 45.8564 12.8422C45.9752 12.4903 47.4008 8.5028 47.876 5.92263Z" fill="white"></path>
    <path d="M27.9869 16.3606C25.8031 13.072 21.8892 11.523 20.9086 7.44729C24.9397 7.79695 28.7493 10.6139 30.4125 13.3113C32.1945 16.7124 42.7862 25.3232 34.4517 28.5566C33.5628 28.9014 32.5369 28.7923 31.6005 28.7923C30.8062 24.7483 30.322 19.8771 27.9869 16.3606Z" fill="white"></path>
    <path d="M6.89034 18.0025L14.2559 21.5209C16.0379 22.3419 19.2677 25.0058 21.6214 26.1101C22.6495 26.5924 23.5269 27.3423 24.5733 27.8109C25.8566 28.3854 28.005 28.0924 28.1976 29.9661C28.4497 32.4149 25.317 35.7546 22.8094 34.5501C20.4266 33.4057 19.2713 31.2841 17.5718 29.496C15.3641 27.1731 12.8194 25.1163 10.4543 22.9492C8.93713 21.5589 7.11606 20.1642 6.89034 18.0025Z" fill="white"></path>
    <path d="M0.475196 35.36V35.8291C5.40799 38.5317 11.0102 40.2478 16.1567 42.7072C17.4599 43.3299 20.1049 45.7539 21.5956 44.7983C23.516 43.5673 22.3344 39.5777 22.3342 37.7056C17.0287 36.7367 11.5925 35.9556 6.17755 35.5819C4.02184 35.4332 2.68676 34.5644 0.475196 35.36Z" fill="white"></path>
    <path d="M48.7076 30.3341C46.1351 31.0455 44.9559 35.0727 46.3337 37.2264C46.9484 38.1872 48.2849 38.3788 48.7781 39.3788C49.5712 40.9862 48.7845 43.1763 49.9169 44.6688C50.6737 45.6666 52.3682 45.369 53.4595 45.4869C56.2406 45.7874 60.452 48.7056 63.1915 47.6177C66.1004 46.4623 64.3061 42.1726 63.3771 40.2858C61.0517 35.5634 57.934 33.7742 53.2219 31.8733C51.8006 31.3 50.3268 29.8863 48.7076 30.3341Z" fill="#CABC32"></path>
    <path d="M5.93995 64.6801C4.27493 64.3796 0.34915 64.7876 0 66.7912C2.91031 67.5495 4.94049 66.0706 7.60313 65.1021C9.24574 64.5047 10.7483 64.283 12.3551 63.5073C12.393 63.9767 12.4235 64.4505 12.5601 64.9055C13.5753 68.2893 16.9388 64.5105 18.5114 64.2504C19.5066 64.0857 20.4316 65.2351 21.6214 65.1049C23.6937 64.8779 25.212 63.2704 27.0862 62.5691C26.9277 63.228 26.7136 63.8291 26.4254 64.4456C24.1048 69.4108 31.1199 63.8266 32.5416 63.6497C34.0908 63.4571 34.8259 65.5717 36.5901 65.3327C39.1944 64.9794 41.0472 62.3355 43.718 61.8654L43.4804 64.211C41.8149 64.2305 40.5482 66.627 42.5559 66.9078C44.4056 67.1665 46.9781 65.0277 48.7076 64.4456C48.7501 69.0892 51.9726 65.183 53.9347 64.648C54.9357 64.3752 55.9279 65.4342 57.0235 65.3369C58.4422 65.2109 59.6908 63.9823 61.0532 63.9708C62.9682 63.9549 63.3111 66.3429 65.8146 65.7099C68.1086 65.13 69.8025 63.3605 71.9922 62.5691C71.8078 63.4102 70.108 65.852 70.952 66.5111C72.431 67.6661 75.7032 64.0051 77.2193 63.718C78.5786 63.4606 79.327 65.0287 80.5457 65.308C81.8185 65.6001 82.6895 64.477 83.8628 64.5457C84.6742 64.5931 85.2459 65.4586 86.014 65.6998C87.6259 66.2059 89.5799 65.3862 91 64.6801V64.211L86.4856 63.7419C87.0922 62.9289 87.8485 62.414 88.6145 61.7566C90.5638 60.0839 89.903 57.8392 87.1984 58.9294C85.0401 59.7994 84.5314 63.0612 82.4474 63.5655C81.1969 63.8683 80.7719 61.9029 79.5858 61.6846C77.5044 61.3017 75.8035 63.057 74.1305 63.9764C74.5095 63.0776 76.0953 60.7993 74.7678 60.052C73.8984 59.5627 72.7031 60.3262 71.9922 60.7745C70.3197 61.8286 68.3132 64.0182 66.291 64.3088C64.3686 64.5849 64.8352 61.7807 63.1965 61.4838C61.4699 61.1709 60.0626 63.3384 58.4491 63.6333C56.731 63.9474 56.7346 61.9128 55.3508 61.7366C53.7715 61.5356 51.9995 64.5155 50.846 65.3838C51.151 61.7017 55.3278 59.98 57.5536 57.3686C58.2818 56.5148 59.7644 54.9414 59.5366 53.7085C59.1462 51.5951 55.6412 53.9827 54.8851 54.5379C50.9983 57.3921 49.997 63.4721 45.1436 64.6801C45.4634 64.0635 45.8022 63.4461 46.0667 62.8036C46.6937 61.2797 47.004 58.5923 44.4308 59.6455C42.0746 60.61 40.102 63.1048 37.544 63.6054C36.2985 63.8491 36.0277 61.9951 34.9167 61.7054C32.7769 61.1474 30.9288 63.0398 29.2245 63.9764C29.5059 63.4334 29.7879 62.8937 30.0348 62.334C30.6235 60.9985 30.4315 59.3905 28.5117 60.0239C26.4392 60.7076 24.9349 63.155 22.8139 63.5425C21.2931 63.82 21.6582 61.3552 19.9571 61.7099C19.0878 61.8912 14.2111 66.5911 15.2202 62.8036C15.3056 62.4832 15.4452 62.1684 15.5816 61.8666C15.8088 61.3632 16.0886 60.9164 16.3943 60.458V60.2235C14.1173 59.1407 11.5604 62.8878 9.50392 63.7419C8.92936 60.8692 1.37576 57.7868 5.22623 55.3418C5.67937 55.0542 6.17023 54.8279 6.65274 54.594V54.8286L5.70235 55.2977V55.7668L5.93995 56.0014C6.67477 55.8029 7.37152 55.5322 8.07833 55.2505C8.76114 54.9787 12.3561 53.086 9.96426 52.4332C9.19081 52.2221 8.10359 52.7398 7.36554 52.9523C5.23794 53.5645 0.736126 54.8647 0.740664 57.6433C0.746438 61.191 7.39379 60.7695 5.93995 64.6801Z" fill="#CABC32"></path>
</svg> 